<svg width="20" height="19" viewBox="0 0 20 19" fill="none" xmlns="http://www.w3.org/2000/svg">
<g clip-path="url(#clip0)">
<path d="M16.7663 0H3.06086C1.66106 0 0.530884 1.1443 0.530884 2.5616V16.4384C0.530884 17.8499 1.66106 18.9942 3.06086 18.9942H9.81894L9.83042 12.2039H8.08639C7.86266 12.2039 7.67907 12.018 7.67333 11.7915L7.6676 9.60165C7.6676 9.36931 7.85118 9.18343 8.08066 9.18343H9.81894V7.06909C9.81894 4.61785 11.2991 3.28187 13.4618 3.28187H15.2346C15.464 3.28187 15.6476 3.46775 15.6476 3.70009V5.54723C15.6476 5.77958 15.464 5.96545 15.2346 5.96545H14.1446C12.9685 5.96545 12.739 6.52889 12.739 7.35952V9.18924H15.3206C15.5673 9.18924 15.7567 9.40416 15.7279 9.65393L15.4697 11.8438C15.4468 12.0529 15.269 12.2097 15.0624 12.2097H12.7448V18.9942H16.7663C18.1604 18.9942 19.2963 17.8499 19.2963 16.4326V2.5616C19.2906 1.1443 18.1604 0 16.7663 0Z" fill="#475993"/>
</g>
<defs>
<clipPath id="clip0">
<rect width="18.7654" height="19" fill="white" transform="translate(0.530884)"/>
</clipPath>
</defs>
</svg>
