<svg width="25" height="17" viewBox="0 0 25 17" fill="none" xmlns="http://www.w3.org/2000/svg">
<g clip-path="url(#clip0)">
<path d="M19.5829 0H5.72577C3.00703 0 0.80249 2.2321 0.80249 4.98482V12C0.80249 14.7527 3.00703 16.9848 5.72577 16.9848H19.5829C22.3016 16.9848 24.5062 14.7527 24.5062 12V4.98482C24.5062 2.2321 22.3016 0 19.5829 0ZM16.2537 8.8308L9.77493 11.961C9.60139 12.0456 9.40215 11.9154 9.40215 11.7202V5.27115C9.40215 5.07592 9.60782 4.94577 9.78136 5.03688L16.2601 8.36226C16.4529 8.45987 16.4464 8.7397 16.2537 8.8308Z" fill="#F61C0D"/>
</g>
<defs>
<clipPath id="clip0">
<rect width="23.7037" height="17" fill="white" transform="translate(0.80249)"/>
</clipPath>
</defs>
</svg>
