<svg width="22" height="17" viewBox="0 0 22 17" fill="none" xmlns="http://www.w3.org/2000/svg">
<g clip-path="url(#clip0)">
<path d="M20.2507 1.97327C19.8019 2.17246 19.3346 2.33431 18.8613 2.44636C19.39 1.94215 19.7835 1.30721 20.0048 0.597583C20.0663 0.398389 19.8511 0.224094 19.6728 0.329916C19.0088 0.728305 18.2956 1.0271 17.5456 1.22007C17.5025 1.23252 17.4596 1.23874 17.4104 1.23874C17.2751 1.23874 17.1399 1.18894 17.0354 1.09557C16.2484 0.392164 15.2216 0 14.1643 0C13.7031 0 13.242 0.0746979 12.7871 0.217869C11.3792 0.659832 10.291 1.83632 9.94671 3.29293C9.81761 3.84072 9.78687 4.38228 9.8422 4.91139C9.84834 4.97364 9.81761 5.01721 9.80531 5.03588C9.77458 5.07323 9.73153 5.09191 9.68235 5.09191C9.67621 5.09191 9.67005 5.09191 9.66391 5.09191C6.57763 4.79934 3.79259 3.29293 1.82524 0.852801C1.72687 0.728305 1.53014 0.740754 1.45021 0.883925C1.06289 1.55621 0.860008 2.32186 0.860008 3.09996C0.860008 4.29513 1.3334 5.42182 2.15723 6.23728C1.81295 6.15635 1.4748 6.02563 1.16741 5.84511C1.01986 5.75796 0.829268 5.87001 0.829268 6.04431C0.810824 7.81838 1.83139 9.39326 3.36838 10.1091C3.33764 10.1091 3.3069 10.1091 3.27617 10.1091C3.03024 10.1091 2.78432 10.0842 2.54455 10.0406C2.37241 10.0095 2.23101 10.1714 2.28634 10.3394C2.78432 11.9143 4.12458 13.0784 5.7292 13.3398C4.39509 14.2424 2.84581 14.7217 1.23503 14.7217H0.730901C0.577201 14.7217 0.441946 14.8213 0.405058 14.9769C0.36817 15.1263 0.435798 15.2819 0.571053 15.3629C2.39085 16.4335 4.46273 17 6.57148 17C8.41587 17 10.1373 16.6327 11.6989 15.8982C13.1253 15.2259 14.3856 14.2735 15.4492 13.0535C16.4389 11.9205 17.2075 10.6071 17.7485 9.15672C18.2588 7.77481 18.5293 6.29952 18.5293 4.89271V4.82424C18.5293 4.60015 18.6277 4.3885 18.8059 4.23911C19.4761 3.69132 20.0539 3.04394 20.5335 2.31564C20.6565 2.12267 20.4598 1.8799 20.2507 1.97327Z" fill="#76A9EA"/>
</g>
<defs>
<clipPath id="clip0">
<rect width="20.7407" height="17" fill="white" transform="translate(0.395081)"/>
</clipPath>
</defs>
</svg>
