<svg width="20" height="20" viewBox="0 0 20 20" fill="none" xmlns="http://www.w3.org/2000/svg">
<g clip-path="url(#clip0)">
<path d="M5.00001 5C5.00001 4.33696 5.2634 3.70107 5.73224 3.23223C6.20108 2.76339 6.83697 2.5 7.50001 2.5H12.5C13.1631 2.5 13.7989 2.76339 14.2678 3.23223C14.7366 3.70107 15 4.33696 15 5V15C15 15.663 14.7366 16.2989 14.2678 16.7678C13.7989 17.2366 13.1631 17.5 12.5 17.5H7.50001C6.83697 17.5 6.20108 17.2366 5.73224 16.7678C5.2634 16.2989 5.00001 15.663 5.00001 15V5ZM11.25 13.75C11.25 13.4185 11.1183 13.1005 10.8839 12.8661C10.6495 12.6317 10.3315 12.5 10 12.5C9.66849 12.5 9.35055 12.6317 9.11613 12.8661C8.88171 13.1005 8.75001 13.4185 8.75001 13.75C8.75001 14.0815 8.88171 14.3995 9.11613 14.6339C9.35055 14.8683 9.66849 15 10 15C10.3315 15 10.6495 14.8683 10.8839 14.6339C11.1183 14.3995 11.25 14.0815 11.25 13.75ZM2.25876 5.9175C2.33634 5.77097 2.35253 5.59962 2.30377 5.44115C2.25501 5.28268 2.14529 5.15008 1.99876 5.0725C1.85223 4.99492 1.68088 4.97874 1.52241 5.0275C1.36394 5.07625 1.23134 5.18597 1.15376 5.3325C0.393743 6.77075 -0.00238478 8.37329 1.08011e-05 10C1.08011e-05 11.6838 0.417511 13.2725 1.15376 14.6675C1.19217 14.7401 1.2445 14.8043 1.30775 14.8567C1.37101 14.909 1.44395 14.9484 1.52241 14.9725C1.60088 14.9966 1.68333 15.0051 1.76506 14.9974C1.84679 14.9897 1.92621 14.9659 1.99876 14.9275C2.07132 14.8891 2.1356 14.8368 2.18793 14.7735C2.24026 14.7103 2.27962 14.6373 2.30377 14.5588C2.32791 14.4804 2.33636 14.3979 2.32864 14.3162C2.32092 14.2345 2.29717 14.1551 2.25876 14.0825C1.59407 12.8245 1.24772 11.4228 1.25001 10C1.25001 8.525 1.61501 7.135 2.25876 5.9175ZM18.8463 5.3325C18.7687 5.18597 18.6361 5.07625 18.4776 5.0275C18.3191 4.97874 18.1478 4.99492 18.0013 5.0725C17.8547 5.15008 17.745 5.28268 17.6963 5.44115C17.6475 5.59962 17.6637 5.77097 17.7413 5.9175C18.385 7.135 18.75 8.52375 18.75 10C18.75 11.475 18.385 12.865 17.7413 14.0825C17.6637 14.229 17.6475 14.4004 17.6963 14.5588C17.745 14.7173 17.8547 14.8499 18.0013 14.9275C18.1478 15.0051 18.3191 15.0213 18.4776 14.9725C18.6361 14.9237 18.7687 14.814 18.8463 14.6675C19.6063 13.2292 20.0024 11.6267 20 10C20.0024 8.37329 19.6063 6.77075 18.8463 5.3325V5.3325ZM4.17501 7.7275C4.20989 7.65025 4.22869 7.56671 4.23028 7.48196C4.23186 7.39721 4.21618 7.31303 4.18421 7.23453C4.15224 7.15603 4.10463 7.08486 4.04428 7.02533C3.98394 6.96581 3.91211 6.91919 3.83318 6.88829C3.75425 6.8574 3.66986 6.84288 3.58514 6.84563C3.50043 6.84837 3.41715 6.86832 3.34039 6.90426C3.26362 6.9402 3.19497 6.99138 3.1386 7.05468C3.08224 7.11799 3.03934 7.19209 3.01251 7.2725C2.67309 8.14175 2.49927 9.06683 2.50001 10C2.50001 10.9612 2.68126 11.8813 3.01251 12.7275C3.03934 12.8079 3.08224 12.882 3.1386 12.9453C3.19497 13.0086 3.26362 13.0598 3.34039 13.0957C3.41715 13.1317 3.50043 13.1516 3.58514 13.1544C3.66986 13.1571 3.75425 13.1426 3.83318 13.1117C3.91211 13.0808 3.98394 13.0342 4.04428 12.9747C4.10463 12.9151 4.15224 12.844 4.18421 12.7655C4.21618 12.687 4.23186 12.6028 4.23028 12.518C4.22869 12.4333 4.20989 12.3498 4.17501 12.2725C3.89286 11.5481 3.74871 10.7774 3.75001 10C3.75001 9.1975 3.90001 8.43125 4.17501 7.7275ZM16.9875 7.2725C16.9216 7.12646 16.8021 7.01132 16.6537 6.95087C16.5053 6.89043 16.3393 6.88929 16.1901 6.94769C16.0409 7.00609 15.9198 7.11958 15.8518 7.2647C15.7839 7.40982 15.7743 7.5755 15.825 7.7275C16.1 8.43125 16.25 9.1975 16.25 10C16.25 10.8025 16.1 11.5687 15.825 12.2725C15.7743 12.4245 15.7839 12.5902 15.8518 12.7353C15.9198 12.8804 16.0409 12.9939 16.1901 13.0523C16.3393 13.1107 16.5053 13.1096 16.6537 13.0491C16.8021 12.9887 16.9216 12.8735 16.9875 12.7275C17.32 11.8813 17.5 10.9612 17.5 10C17.5 9.03875 17.3188 8.11875 16.9875 7.2725V7.2725Z" fill="#FF5252"/>
</g>
<defs>
<clipPath id="clip0">
<rect width="20" height="20" fill="white"/>
</clipPath>
</defs>
</svg>
