<svg width="21" height="21" viewBox="0 0 21 21" fill="none" xmlns="http://www.w3.org/2000/svg">
<path d="M9.1875 18.375C9.1875 18.375 7.875 18.375 7.875 17.0625C7.875 15.75 9.1875 11.8125 14.4375 11.8125C19.6875 11.8125 21 15.75 21 17.0625C21 18.375 19.6875 18.375 19.6875 18.375H9.1875ZM14.4375 10.5C15.4818 10.5 16.4833 10.0852 17.2217 9.34673C17.9602 8.60831 18.375 7.60679 18.375 6.5625C18.375 5.51821 17.9602 4.51669 17.2217 3.77827C16.4833 3.03984 15.4818 2.625 14.4375 2.625C13.3932 2.625 12.3917 3.03984 11.6533 3.77827C10.9148 4.51669 10.5 5.51821 10.5 6.5625C10.5 7.60679 10.9148 8.60831 11.6533 9.34673C12.3917 10.0852 13.3932 10.5 14.4375 10.5Z" fill="white"/>
<path fill-rule="evenodd" clip-rule="evenodd" d="M6.846 18.375C6.65143 17.9653 6.55439 17.516 6.5625 17.0625C6.5625 15.2841 7.455 13.4531 9.1035 12.18C8.28068 11.9265 7.42343 11.8025 6.5625 11.8125C1.3125 11.8125 0 15.75 0 17.0625C0 18.375 1.3125 18.375 1.3125 18.375H6.846Z" fill="white"/>
<path d="M5.90625 10.5C6.77649 10.5 7.61109 10.1543 8.22644 9.53894C8.8418 8.92359 9.1875 8.08899 9.1875 7.21875C9.1875 6.34851 8.8418 5.51391 8.22644 4.89856C7.61109 4.2832 6.77649 3.9375 5.90625 3.9375C5.03601 3.9375 4.20141 4.2832 3.58606 4.89856C2.9707 5.51391 2.625 6.34851 2.625 7.21875C2.625 8.08899 2.9707 8.92359 3.58606 9.53894C4.20141 10.1543 5.03601 10.5 5.90625 10.5Z" fill="white"/>
</svg>
