<svg width="21" height="21" viewBox="0 0 21 21" fill="none" xmlns="http://www.w3.org/2000/svg">
<g clip-path="url(#clip0)">
<path d="M2.625 5.25C2.625 4.55381 2.90156 3.88613 3.39384 3.39384C3.88613 2.90156 4.55381 2.625 5.25 2.625H13.125C13.8212 2.625 14.4889 2.90156 14.9812 3.39384C15.4734 3.88613 15.75 4.55381 15.75 5.25V20.3438C15.7499 20.4625 15.7177 20.5789 15.6567 20.6807C15.5956 20.7826 15.5082 20.8659 15.4035 20.922C15.2989 20.978 15.181 21.0046 15.0624 20.9989C14.9438 20.9932 14.829 20.9555 14.7302 20.8898L9.1875 17.1951L3.64481 20.8898C3.54599 20.9555 3.43118 20.9932 3.31261 20.9989C3.19404 21.0046 3.07615 20.978 2.9715 20.922C2.86685 20.8659 2.77936 20.7826 2.71834 20.6807C2.65732 20.5789 2.62506 20.4625 2.625 20.3438V5.25Z" fill="white"/>
<path d="M5.60181 1.3125C5.83219 0.913459 6.16356 0.582091 6.56259 0.3517C6.96163 0.121309 7.41428 1.17054e-05 7.87506 0L15.7501 0C16.4462 0 17.1139 0.276562 17.6062 0.768845C18.0985 1.26113 18.3751 1.92881 18.3751 2.625V17.7188C18.375 17.8375 18.3427 17.9539 18.2817 18.0557C18.2207 18.1576 18.1332 18.2409 18.0286 18.297C17.9239 18.353 17.806 18.3796 17.6874 18.3739C17.5689 18.3682 17.4541 18.3305 17.3552 18.2648L17.0626 18.0705V2.625C17.0626 2.2769 16.9243 1.94306 16.6781 1.69692C16.432 1.45078 16.0982 1.3125 15.7501 1.3125H5.60181Z" fill="white"/>
</g>
<defs>
<clipPath id="clip0">
<rect width="21" height="21" fill="white"/>
</clipPath>
</defs>
</svg>
