<svg width="21" height="21" viewBox="0 0 21 21" fill="none" xmlns="http://www.w3.org/2000/svg">
<g clip-path="url(#clip0)">
<path fill-rule="evenodd" clip-rule="evenodd" d="M7.875 16.4062C7.875 16.5803 7.94414 16.7472 8.06721 16.8703C8.19028 16.9934 8.3572 17.0625 8.53125 17.0625H19.0312C19.2053 17.0625 19.3722 16.9934 19.4953 16.8703C19.6184 16.7472 19.6875 16.5803 19.6875 16.4062V4.59375C19.6875 4.4197 19.6184 4.25278 19.4953 4.12971C19.3722 4.00664 19.2053 3.9375 19.0312 3.9375H8.53125C8.3572 3.9375 8.19028 4.00664 8.06721 4.12971C7.94414 4.25278 7.875 4.4197 7.875 4.59375V7.21875C7.875 7.3928 7.80586 7.55972 7.68279 7.68279C7.55972 7.80586 7.3928 7.875 7.21875 7.875C7.0447 7.875 6.87778 7.80586 6.75471 7.68279C6.63164 7.55972 6.5625 7.3928 6.5625 7.21875V4.59375C6.5625 4.07161 6.76992 3.57085 7.13913 3.20163C7.50835 2.83242 8.00911 2.625 8.53125 2.625H19.0312C19.5534 2.625 20.0542 2.83242 20.4234 3.20163C20.7926 3.57085 21 4.07161 21 4.59375V16.4062C21 16.9284 20.7926 17.4292 20.4234 17.7984C20.0542 18.1676 19.5534 18.375 19.0312 18.375H8.53125C8.00911 18.375 7.50835 18.1676 7.13913 17.7984C6.76992 17.4292 6.5625 16.9284 6.5625 16.4062V13.7812C6.5625 13.6072 6.63164 13.4403 6.75471 13.3172C6.87778 13.1941 7.0447 13.125 7.21875 13.125C7.3928 13.125 7.55972 13.1941 7.68279 13.3172C7.80586 13.4403 7.875 13.6072 7.875 13.7812V16.4062Z" fill="white"/>
<path fill-rule="evenodd" clip-rule="evenodd" d="M0.191822 10.9646C0.130707 10.9037 0.0822198 10.8312 0.0491363 10.7515C0.0160529 10.6718 -0.000976563 10.5863 -0.000976562 10.5C-0.000976563 10.4137 0.0160529 10.3282 0.0491363 10.2485C0.0822198 10.1688 0.130707 10.0963 0.191822 10.0354L4.12932 6.09787C4.19034 6.03686 4.26277 5.98846 4.34249 5.95544C4.42221 5.92241 4.50766 5.90542 4.59395 5.90542C4.68024 5.90542 4.76568 5.92241 4.8454 5.95544C4.92512 5.98846 4.99756 6.03686 5.05857 6.09787C5.11959 6.15889 5.16799 6.23132 5.20101 6.31104C5.23403 6.39076 5.25103 6.47621 5.25103 6.5625C5.25103 6.64879 5.23403 6.73423 5.20101 6.81395C5.16799 6.89367 5.11959 6.96611 5.05857 7.02712L2.24063 9.84375H13.7814C13.9555 9.84375 14.1224 9.91289 14.2455 10.036C14.3686 10.159 14.4377 10.3259 14.4377 10.5C14.4377 10.674 14.3686 10.841 14.2455 10.964C14.1224 11.0871 13.9555 11.1562 13.7814 11.1562H2.24063L5.05857 13.9729C5.11959 14.0339 5.16799 14.1063 5.20101 14.186C5.23403 14.2658 5.25103 14.3512 5.25103 14.4375C5.25103 14.5238 5.23403 14.6092 5.20101 14.689C5.16799 14.7687 5.11959 14.8411 5.05857 14.9021C4.99756 14.9631 4.92512 15.0115 4.8454 15.0446C4.76568 15.0776 4.68024 15.0946 4.59395 15.0946C4.50766 15.0946 4.42221 15.0776 4.34249 15.0446C4.26277 15.0115 4.19034 14.9631 4.12932 14.9021L0.191822 10.9646Z" fill="white"/>
</g>
<defs>
<clipPath id="clip0">
<rect width="21" height="21" fill="white"/>
</clipPath>
</defs>
</svg>
