<svg width="16" height="16" viewBox="0 0 16 16" fill="none" xmlns="http://www.w3.org/2000/svg">
<path fill-rule="evenodd" clip-rule="evenodd" d="M1.64592 6.64598C1.69236 6.59941 1.74754 6.56247 1.80828 6.53727C1.86903 6.51206 1.93415 6.49908 1.99992 6.49908C2.06568 6.49908 2.13081 6.51206 2.19155 6.53727C2.2523 6.56247 2.30747 6.59941 2.35392 6.64598L7.99992 12.293L13.6459 6.64598C13.7398 6.55209 13.8671 6.49935 13.9999 6.49935C14.1327 6.49935 14.26 6.55209 14.3539 6.64598C14.4478 6.73986 14.5005 6.8672 14.5005 6.99998C14.5005 7.13275 14.4478 7.26009 14.3539 7.35398L8.35392 13.354C8.30747 13.4005 8.2523 13.4375 8.19155 13.4627C8.13081 13.4879 8.06568 13.5009 7.99992 13.5009C7.93415 13.5009 7.86903 13.4879 7.80828 13.4627C7.74754 13.4375 7.69236 13.4005 7.64592 13.354L1.64592 7.35398C1.59935 7.30753 1.56241 7.25236 1.5372 7.19161C1.512 7.13087 1.49902 7.06575 1.49902 6.99998C1.49902 6.93421 1.512 6.86909 1.5372 6.80834C1.56241 6.7476 1.59935 6.69242 1.64592 6.64598V6.64598Z" fill="white"/>
<path fill-rule="evenodd" clip-rule="evenodd" d="M1.64592 2.64598C1.69236 2.59941 1.74754 2.56247 1.80828 2.53727C1.86903 2.51206 1.93415 2.49908 1.99992 2.49908C2.06568 2.49908 2.13081 2.51206 2.19155 2.53727C2.2523 2.56247 2.30747 2.59941 2.35392 2.64598L7.99992 8.29298L13.6459 2.64598C13.6924 2.59949 13.7476 2.56261 13.8083 2.53746C13.8691 2.5123 13.9342 2.49935 13.9999 2.49935C14.0657 2.49935 14.1308 2.5123 14.1915 2.53746C14.2522 2.56261 14.3074 2.59949 14.3539 2.64598C14.4004 2.69247 14.4373 2.74766 14.4624 2.80839C14.4876 2.86913 14.5005 2.93423 14.5005 2.99998C14.5005 3.06572 14.4876 3.13082 14.4624 3.19156C14.4373 3.2523 14.4004 3.30749 14.3539 3.35398L8.35392 9.35398C8.30747 9.40054 8.2523 9.43748 8.19155 9.46269C8.13081 9.4879 8.06568 9.50087 7.99992 9.50087C7.93415 9.50087 7.86903 9.4879 7.80828 9.46269C7.74754 9.43748 7.69236 9.40054 7.64592 9.35398L1.64592 3.35398C1.59935 3.30753 1.56241 3.25236 1.5372 3.19161C1.512 3.13087 1.49902 3.06575 1.49902 2.99998C1.49902 2.93421 1.512 2.86909 1.5372 2.80834C1.56241 2.7476 1.59935 2.69242 1.64592 2.64598V2.64598Z" fill="white"/>
</svg>
