<svg width="21" height="21" viewBox="0 0 21 21" fill="none" xmlns="http://www.w3.org/2000/svg">
<path d="M0 1.96875C0 1.7947 0.0691404 1.62778 0.192211 1.50471C0.315282 1.38164 0.482202 1.3125 0.65625 1.3125H2.625C2.77138 1.31254 2.91355 1.36152 3.0289 1.45166C3.14424 1.54179 3.22614 1.6679 3.26156 1.80994L3.79313 3.9375H19.0312C19.1276 3.93759 19.2228 3.9589 19.31 3.99991C19.3972 4.04092 19.4743 4.10064 19.5358 4.1748C19.5973 4.24897 19.6417 4.33578 19.6659 4.42905C19.6901 4.52233 19.6934 4.61979 19.6757 4.7145L17.7069 15.2145C17.6788 15.3649 17.599 15.5007 17.4813 15.5985C17.3636 15.6963 17.2155 15.7499 17.0625 15.75H5.25C5.097 15.7499 4.94887 15.6963 4.8312 15.5985C4.71352 15.5007 4.63371 15.3649 4.60556 15.2145L2.63812 4.73419L2.11313 2.625H0.65625C0.482202 2.625 0.315282 2.55586 0.192211 2.43279C0.0691404 2.30972 0 2.1428 0 1.96875ZM6.5625 15.75C5.86631 15.75 5.19863 16.0266 4.70634 16.5188C4.21406 17.0111 3.9375 17.6788 3.9375 18.375C3.9375 19.0712 4.21406 19.7389 4.70634 20.2312C5.19863 20.7234 5.86631 21 6.5625 21C7.25869 21 7.92637 20.7234 8.41866 20.2312C8.91094 19.7389 9.1875 19.0712 9.1875 18.375C9.1875 17.6788 8.91094 17.0111 8.41866 16.5188C7.92637 16.0266 7.25869 15.75 6.5625 15.75ZM15.75 15.75C15.0538 15.75 14.3861 16.0266 13.8938 16.5188C13.4016 17.0111 13.125 17.6788 13.125 18.375C13.125 19.0712 13.4016 19.7389 13.8938 20.2312C14.3861 20.7234 15.0538 21 15.75 21C16.4462 21 17.1139 20.7234 17.6062 20.2312C18.0984 19.7389 18.375 19.0712 18.375 18.375C18.375 17.6788 18.0984 17.0111 17.6062 16.5188C17.1139 16.0266 16.4462 15.75 15.75 15.75ZM6.5625 17.0625C6.9106 17.0625 7.24444 17.2008 7.49058 17.4469C7.73672 17.6931 7.875 18.0269 7.875 18.375C7.875 18.7231 7.73672 19.0569 7.49058 19.3031C7.24444 19.5492 6.9106 19.6875 6.5625 19.6875C6.2144 19.6875 5.88056 19.5492 5.63442 19.3031C5.38828 19.0569 5.25 18.7231 5.25 18.375C5.25 18.0269 5.38828 17.6931 5.63442 17.4469C5.88056 17.2008 6.2144 17.0625 6.5625 17.0625ZM15.75 17.0625C16.0981 17.0625 16.4319 17.2008 16.6781 17.4469C16.9242 17.6931 17.0625 18.0269 17.0625 18.375C17.0625 18.7231 16.9242 19.0569 16.6781 19.3031C16.4319 19.5492 16.0981 19.6875 15.75 19.6875C15.4019 19.6875 15.0681 19.5492 14.8219 19.3031C14.5758 19.0569 14.4375 18.7231 14.4375 18.375C14.4375 18.0269 14.5758 17.6931 14.8219 17.4469C15.0681 17.2008 15.4019 17.0625 15.75 17.0625Z" fill="white"/>
</svg>
