<svg width="21" height="21" viewBox="0 0 21 21" fill="none" xmlns="http://www.w3.org/2000/svg">
<path d="M20.9801 11.1562H10.7715L3.55273 18.375C5.02634 19.6751 6.83522 20.5355 8.77364 20.8585C10.7121 21.1814 12.7022 20.9539 14.5177 20.2019C16.3332 19.4498 17.9013 18.2033 19.0435 16.6042C20.1857 15.0051 20.8562 13.1176 20.9788 11.1562H20.9801ZM2.62479 17.4457C1.32471 15.9721 0.464261 14.1632 0.141305 12.2248C-0.18165 10.2864 0.0458495 8.29628 0.79793 6.48075C1.55001 4.66523 2.79649 3.0972 4.39559 1.955C5.99469 0.812796 7.88223 0.142271 9.84354 0.0196838V10.2283L2.62479 17.4471V17.4457ZM11.156 0.0196838V9.84375H20.9801C20.8201 7.29065 19.7337 4.88374 17.9249 3.07489C16.116 1.26604 13.7091 0.179654 11.156 0.0196838Z" fill="white"/>
</svg>
