<svg width="20" height="20" viewBox="0 0 20 20" fill="none" xmlns="http://www.w3.org/2000/svg">
<g clip-path="url(#clip0)">
<path d="M13.75 1.25C13.087 1.25 12.4511 1.51339 11.9822 1.98223C11.5134 2.45107 11.25 3.08696 11.25 3.75V8.75C11.913 8.75 12.5489 9.01339 13.0178 9.48223C13.4866 9.95107 13.75 10.587 13.75 11.25V17.5C13.75 18.163 13.4866 18.7989 13.0178 19.2678C12.5489 19.7366 11.913 20 11.25 20H3.75C3.08696 20 2.45107 19.7366 1.98223 19.2678C1.51339 18.7989 1.25 18.163 1.25 17.5V11.25C1.25 10.587 1.51339 9.95107 1.98223 9.48223C2.45107 9.01339 3.08696 8.75 3.75 8.75H10V3.75C10 2.75544 10.3951 1.80161 11.0983 1.09835C11.8016 0.395088 12.7554 0 13.75 0C14.7446 0 15.6984 0.395088 16.4017 1.09835C17.1049 1.80161 17.5 2.75544 17.5 3.75V8.75C17.5 8.91576 17.4342 9.07473 17.3169 9.19194C17.1997 9.30915 17.0408 9.375 16.875 9.375C16.7092 9.375 16.5503 9.30915 16.4331 9.19194C16.3158 9.07473 16.25 8.91576 16.25 8.75V3.75C16.25 3.08696 15.9866 2.45107 15.5178 1.98223C15.0489 1.51339 14.413 1.25 13.75 1.25Z" fill="#FF2F2F"/>
</g>
<defs>
<clipPath id="clip0">
<rect width="20" height="20" fill="white"/>
</clipPath>
</defs>
</svg>
